<?xml version="1.0" encoding="UTF-8"?>
<svg width="164px" height="24px" viewBox="0 0 164 24" version="1.1" xmlns="http://www.w3.org/2000/svg" xmlns:xlink="http://www.w3.org/1999/xlink">
    <!-- Generator: Sketch 51.2 (57519) - http://www.bohemiancoding.com/sketch -->
    <title>Logo</title>
    <desc>Created with Sketch.</desc>
    <defs></defs>
    <g id="Desktop" stroke="none" stroke-width="1" fill="none" fill-rule="evenodd">
        <g id="Desktop-Copy" transform="translate(-224.000000, -8.000000)">
            <g id="Logo" transform="translate(224.000000, 8.000000)">
                <g id="Logo-Copy">
                    <rect id="Rectangle-path" fill="#E41E26" fill-rule="nonzero" x="0" y="7.70552764" width="3.62201005" height="15.3945729"></rect>
                    <path d="M42.7718593,7.70552764 L42.7718593,13.6433166 L39.3352764,13.6433166 L39.3352764,7.70552764 L35.7132663,7.70552764 L35.7132663,10.2479397 C33.9936013,8.24532663 31.9044556,7.2440201 29.4458291,7.2440201 C27.2877798,7.21276074 25.2086053,8.05454864 23.6801481,9.57835066 C22.1516909,11.1021527 21.3035647,13.1787498 21.3282412,15.3368844 C21.2464445,17.513849 22.0753915,19.6264567 23.6158242,21.1668894 C25.1562569,22.707322 27.2688645,23.5362691 29.4458291,23.4544724 C31.8714977,23.4679262 34.1739611,22.3870854 35.7132663,20.5123618 L35.7132663,23.1001005 L39.3352764,23.1001005 L39.3352764,17.3065327 L42.7718593,17.3065327 L42.7718593,23.1001005 L46.418593,23.1001005 L46.418593,7.70552764 L42.7718593,7.70552764 Z M33.5334673,17.4054271 C32.4456281,19.0124623 31.0817085,19.8036181 29.4458291,19.8036181 C28.2540449,19.8274043 27.104041,19.3644456 26.2611545,18.5215591 C25.418268,17.6786725 24.9553093,16.5286687 24.9790955,15.3368844 C24.9481179,14.1510036 25.4124687,13.005804 26.260603,12.1763819 C27.0996071,11.3273607 28.252607,10.8634758 29.4458291,10.8948744 C30.9704523,10.8948744 32.280804,11.6571859 33.3686432,13.1529648 L35.7132663,11.438794 L35.7132663,18.9094472 L33.5334673,17.4054271 Z" id="Shape" fill="#E41E26" fill-rule="nonzero"></path>
                    <polygon id="Shape" fill="#E41E26" fill-rule="nonzero" points="15.5099497 7.72613065 11.8838191 7.72613065 11.8838191 14.8918593 4.22361809 7.61899497 4.22361809 23.1165829 7.87859296 23.1165829 7.87859296 15.9261307 15.5305528 23.1742714 15.5305528 7.72613065 15.5099497 7.72613065 17.4425126 5.79356784 17.4425126 1.93256281 15.5099497 0"></polygon>
                    <polygon id="Shape" fill="#E41E26" fill-rule="nonzero" points="19.3750754 5.79356784 21.3076382 7.72613065 21.3076382 0 19.3750754 1.93256281"></polygon>
                    <polygon id="Shape" fill="#FFFFFF" fill-rule="nonzero" points="62.9586935 21.5960804 62.9586935 22.9558794 52.4429146 22.9558794 52.4429146 8.08050251 62.6331658 8.08050251 62.6331658 9.44030151 54.0128643 9.44030151 54.0128643 14.7311558 61.7060302 14.7311558 61.7060302 16.0703518 54.0128643 16.0703518 54.0128643 21.5960804"></polygon>
                    <path d="M66.9433166,22.5520603 C66.0604022,22.2778715 65.2553437,21.7976612 64.5945729,21.1510553 L65.2126633,19.939598 C65.8255302,20.5228909 66.5561274,20.9682742 67.3553769,21.2458291 C68.2394144,21.5773874 69.1761354,21.7463043 70.1203015,21.7444221 C71.4526298,21.7444221 72.4511893,21.499933 73.1159799,21.0109548 C73.7465868,20.5856614 74.1212562,19.8719317 74.1131658,19.1113568 C74.1386747,18.5818296 73.9431788,18.0654818 73.5733668,17.6856281 C73.1943609,17.3181245 72.7403199,17.0369845 72.2424121,16.8615075 C71.5241491,16.6136102 70.7922197,16.4072391 70.0502513,16.2434171 C69.1415987,16.0231666 68.247156,15.7479535 67.3718593,15.4192965 C66.7147932,15.1609093 66.1286352,14.7498926 65.661809,14.220201 C65.1623566,13.6040039 64.9097545,12.8241682 64.9530653,12.0321608 C64.9436876,11.3019514 65.1501046,10.5852256 65.5464322,9.9718593 C65.995811,9.31059516 66.6310104,8.79727377 67.3718593,8.49668342 C68.3418271,8.09769927 69.3851427,7.90813318 70.4334673,7.94040201 C71.2783525,7.94050689 72.118998,8.05980642 72.9305528,8.29477387 C73.6834958,8.49749825 74.3977476,8.8232973 75.0444221,9.25899497 L74.5128643,10.4951759 C73.2994564,9.70106339 71.8835722,9.27200757 70.4334673,9.25899497 C69.1313568,9.25899497 68.1506533,9.51035176 67.4913568,10.0130653 C66.861755,10.4591468 66.491941,11.1864477 66.5024121,11.9579899 C66.47718,12.4907 66.6741528,13.0099919 67.0463317,13.3919598 C67.4297836,13.7681064 67.8952429,14.0502029 68.4061307,14.2160804 C68.9555444,14.4083752 69.6876382,14.618526 70.6024121,14.8465327 C71.5003648,15.054614 72.3839991,15.3202548 73.2478392,15.641809 C73.906678,15.8929173 74.4938549,16.3018188 74.9578894,16.8326633 C75.4518617,17.4385882 75.7016893,18.2071755 75.658392,18.9877387 C75.6663349,19.7195269 75.4554002,20.4369918 75.0526633,21.0480402 C74.5923306,21.7094881 73.9453381,22.2187615 73.1942714,22.5108543 C72.2187066,22.9062512 71.1726977,23.0983467 70.1203015,23.0753769 C69.0392792,23.0825328 67.9649305,22.9055649 66.9433166,22.5520603 Z" id="Shape" fill="#FFFFFF" fill-rule="nonzero"></path>
                    <polygon id="Shape" fill="#FFFFFF" fill-rule="nonzero" points="81.1264322 9.44030151 75.8973869 9.44030151 75.8973869 8.08050251 87.9254271 8.08050251 87.9254271 9.44030151 82.6963819 9.44030151 82.6963819 22.9558794 81.1264322 22.9558794"></polygon>
                    <polygon id="Shape" fill="#FFFFFF" fill-rule="nonzero" points="89.7920603 8.08050251 91.3661307 8.08050251 91.3661307 22.9558794 89.7920603 22.9558794"></polygon>
                    <polygon id="Shape" fill="#FFFFFF" fill-rule="nonzero" points="111.017286 8.08050251 111.017286 22.9558794 109.509146 22.9558794 109.509146 11.0555779 103.666131 21.0645226 102.924422 21.0645226 97.081407 11.1256281 97.081407 22.9558794 95.5732663 22.9558794 95.5732663 8.08050251 96.8671357 8.08050251 103.328241 19.1113568 109.723417 8.08050251"></polygon>
                    <path d="M124.553467,18.9836181 L116.266935,18.9836181 L114.482714,22.9558794 L112.834472,22.9558794 L119.633467,8.08050251 L121.182814,8.08050251 L127.981809,22.9558794 L126.333568,22.9558794 L124.553467,18.9836181 Z M123.980704,17.718593 L120.412261,9.72874372 L116.839698,17.718593 L123.980704,17.718593 Z" id="Shape" fill="#FFFFFF" fill-rule="nonzero"></path>
                    <polygon id="Shape" fill="#FFFFFF" fill-rule="nonzero" points="131.970553 9.44030151 126.741508 9.44030151 126.741508 8.08050251 138.769548 8.08050251 138.769548 9.44030151 133.540503 9.44030151 133.540503 22.9558794 131.970553 22.9558794"></polygon>
                    <polygon id="Shape" fill="#FFFFFF" fill-rule="nonzero" points="151.15608 21.5960804 151.15608 22.9558794 140.636181 22.9558794 140.636181 8.08050251 150.838794 8.08050251 150.838794 9.44030151 142.210251 9.44030151 142.210251 14.7311558 149.903417 14.7311558 149.903417 16.0703518 142.210251 16.0703518 142.210251 21.5960804"></polygon>
                    <path d="M155.140704,22.5520603 C154.257789,22.2778715 153.452731,21.7976612 152.79196,21.1510553 L153.41005,19.939598 C154.022917,20.5228909 154.753514,20.9682742 155.552764,21.2458291 C156.436801,21.5773874 157.373522,21.7463043 158.317688,21.7444221 C159.650017,21.7444221 160.648576,21.499933 161.313367,21.0109548 C161.943974,20.5856614 162.318643,19.8719317 162.310553,19.1113568 C162.336062,18.5818296 162.140566,18.0654818 161.770754,17.6856281 C161.391748,17.3181245 160.937707,17.0369845 160.439799,16.8615075 C159.723057,16.6109757 158.992505,16.4018536 158.251759,16.2351759 C157.343106,16.0149254 156.448664,15.7397123 155.573367,15.4110553 C154.916301,15.1526681 154.330143,14.7416513 153.863317,14.2119598 C153.363864,13.5957627 153.111262,12.815927 153.154573,12.0239196 C153.145195,11.2937102 153.351612,10.5769844 153.74794,9.96361809 C154.197319,9.30235395 154.832518,8.78903257 155.573367,8.48844221 C156.547412,8.09535475 157.593604,7.91279782 158.643216,7.95276382 C159.488101,7.9528687 160.328747,8.07216823 161.140302,8.30713568 C161.893245,8.50986006 162.607496,8.83565911 163.254171,9.27135678 L162.722613,10.5075377 C161.509205,9.7134252 160.093321,9.28436938 158.643216,9.27135678 C157.341106,9.27135678 156.360402,9.52271357 155.701106,10.0254271 C155.071504,10.4715086 154.70169,11.1988095 154.712161,11.9703518 C154.686929,12.5030618 154.883902,13.0223537 155.25608,13.4043216 C155.639532,13.7804682 156.104992,14.0625647 156.615879,14.2284422 C157.165293,14.420737 157.897387,14.6308878 158.812161,14.8588945 C159.710114,15.0669758 160.593748,15.3326166 161.457588,15.6541709 C162.122006,15.9111384 162.712372,16.3287833 163.175879,16.8697487 C163.669852,17.4756736 163.919679,18.2442609 163.876382,19.0248241 C163.884325,19.7566123 163.67339,20.4740773 163.270653,21.0851256 C162.810321,21.7465735 162.163328,22.2558469 161.412261,22.5479397 C160.427636,22.9334402 159.374422,23.1129495 158.317688,23.0753769 C157.236691,23.0822123 156.162396,22.9052532 155.140704,22.5520603 Z" id="Shape" fill="#FFFFFF" fill-rule="nonzero"></path>
                </g>
            </g>
        </g>
    </g>
</svg>